999
dxfrw 0.6.3
  0
SECTION
  2
HEADER
  9
$ACADVER
  1
AC1021
  9
$DWGCODEPAGE
  3
ANSI_1252
  9
$INSBASE
 10
0
 20
0
 30
0
  9
$EXTMIN
 10
-125
 20
-477.648975060057
 30
0
  9
$EXTMAX
 10
389.6342834999473
 20
125
 30
0
  9
$LIMMIN
 10
0
 20
0
  9
$LIMMAX
 10
420
 20
297
  9
$ORTHOMODE
 70
    0
  9
$REGENMODE
 70
    1
  9
$FILLMODE
 70
    1
  9
$QTEXTMODE
 70
    0
  9
$MIRRTEXT
 70
    0
  9
$LTSCALE
 40
1
  9
$ATTMODE
 70
    0
  9
$TEXTSIZE
 40
2.5
  9
$TRACEWID
 40
15.68
  9
$TEXTSTYLE
  7
STANDARD
  9
$CLAYER
  8
0
  9
$CELTYPE
  6
BYLAYER
  9
$CECOLOR
 62
  256
  9
$CELTSCALE
 40
1
  9
$DISPSILH
 70
    0
  9
$DIMSCALE
 40
2.5
  9
$DIMASZ
 40
2.5
  9
$DIMEXO
 40
0.625
  9
$DIMDLI
 40
3.75
  9
$DIMRND
 40
0
  9
$DIMDLE
 40
0
  9
$DIMEXE
 40
1.25
  9
$DIMTP
 40
0
  9
$DIMTM
 40
0
  9
$DIMTXT
 40
2.5
  9
$DIMCEN
 40
2.5
  9
$DIMTSZ
 40
0
  9
$DIMTOL
 70
    0
  9
$DIMLIM
 70
    0
  9
$DIMTIH
 70
    0
  9
$DIMTOH
 70
    0
  9
$DIMSE1
 70
    0
  9
$DIMSE2
 70
    0
  9
$DIMTAD
 70
    1
  9
$DIMZIN
 70
    8
  9
$DIMBLK
  1

  9
$DIMASO
 70
    1
  9
$DIMSHO
 70
    1
  9
$DIMPOST
  1

  9
$DIMAPOST
  1

  9
$DIMALT
 70
    0
  9
$DIMALTD
 70
    3
  9
$DIMALTF
 40
0.03937
  9
$DIMLFAC
 40
1
  9
$DIMTOFL
 70
    1
  9
$DIMTVP
 40
0
  9
$DIMTIX
 70
    0
  9
$DIMSOXD
 70
    0
  9
$DIMSAH
 70
    0
  9
$DIMBLK1
  1

  9
$DIMBLK2
  1

  9
$DIMSTYLE
  2
STANDARD
  9
$DIMCLRD
 70
    0
  9
$DIMCLRE
 70
    0
  9
$DIMCLRT
 70
    0
  9
$DIMTFAC
 40
1
  9
$DIMGAP
 40
0.625
  9
$DIMJUST
 70
    0
  9
$DIMSD1
 70
    0
  9
$DIMSD2
 70
    0
  9
$DIMTOLJ
 70
    0
  9
$DIMTZIN
 70
    8
  9
$DIMALTZ
 70
    0
  9
$DIMALTTZ
 70
    0
  9
$DIMUPT
 70
    0
  9
$DIMDEC
 70
    2
  9
$DIMTDEC
 70
    2
  9
$DIMALTU
 70
    2
  9
$DIMALTTD
 70
    3
  9
$DIMTXSTY
  7
STANDARD
  9
$DIMAUNIT
 70
    0
  9
$DIMADEC
 70
    0
  9
$DIMALTRND
 40
0
  9
$DIMAZIN
 70
    0
  9
$DIMDSEP
 70
   44
  9
$DIMATFIT
 70
    3
  9
$DIMFRAC
 70
    0
  9
$DIMLDRBLK
  1
STANDARD
  9
$DIMLUNIT
 70
    2
  9
$DIMLWD
 70
   -2
  9
$DIMLWE
 70
   -2
  9
$DIMTMOVE
 70
    0
  9
$DIMFXL
 40
1
  9
$DIMFXLON
 70
    0
  9
$DIMJOGANG
 40
0.7854
  9
$DIMTFILL
 70
    0
  9
$DIMTFILLCLR
 70
    0
  9
$DIMARCSYM
 70
    0
  9
$DIMLTYPE
  6

  9
$DIMLTEX1
  6

  9
$DIMLTEX2
  6

  9
$LUNITS
 70
    2
  9
$LUPREC
 70
    4
  9
$SKETCHINC
 40
1
  9
$FILLETRAD
 40
0
  9
$AUNITS
 70
    0
  9
$AUPREC
 70
    2
  9
$MENU
  1
.
  9
$ELEVATION
 40
0
  9
$PELEVATION
 40
0
  9
$THICKNESS
 40
0
  9
$LIMCHECK
 70
    0
  9
$CHAMFERA
 40
0
  9
$CHAMFERB
 40
0
  9
$CHAMFERC
 40
0
  9
$CHAMFERD
 40
0
  9
$SKPOLY
 70
    0
  9
$USRTIMER
 70
    1
  9
$ANGBASE
 50
0
  9
$ANGDIR
 70
    0
  9
$PDMODE
 70
   34
  9
$PDSIZE
 40
0
  9
$PLINEWID
 40
0
  9
$SPLFRAME
 70
    0
  9
$SPLINETYPE
 70
    2
  9
$SPLINESEGS
 70
    8
  9
$HANDSEED
  5
20000
  9
$SURFTAB1
 70
    6
  9
$SURFTAB2
 70
    6
  9
$SURFTYPE
 70
    6
  9
$SURFU
 70
    6
  9
$SURFV
 70
    6
  9
$UCSBASE
  2

  9
$UCSNAME
  2

  9
$UCSORG
 10
0
 20
0
 30
0
  9
$UCSXDIR
 10
1
 20
0
 30
0
  9
$UCSYDIR
 10
0
 20
1
 30
0
  9
$UCSORTHOREF
  2

  9
$UCSORTHOVIEW
 70
    0
  9
$UCSORGTOP
 10
0
 20
0
 30
0
  9
$UCSORGBOTTOM
 10
0
 20
0
 30
0
  9
$UCSORGLEFT
 10
0
 20
0
 30
0
  9
$UCSORGRIGHT
 10
0
 20
0
 30
0
  9
$UCSORGFRONT
 10
0
 20
0
 30
0
  9
$UCSORGBACK
 10
0
 20
0
 30
0
  9
$PUCSBASE
  2

  9
$PUCSNAME
  2

  9
$PUCSORG
 10
0
 20
0
 30
0
  9
$PUCSXDIR
 10
1
 20
0
 30
0
  9
$PUCSYDIR
 10
0
 20
1
 30
0
  9
$PUCSORTHOREF
  2

  9
$PUCSORTHOVIEW
 70
    0
  9
$PUCSORGTOP
 10
0
 20
0
 30
0
  9
$PUCSORGBOTTOM
 10
0
 20
0
 30
0
  9
$PUCSORGLEFT
 10
0
 20
0
 30
0
  9
$PUCSORGRIGHT
 10
0
 20
0
 30
0
  9
$PUCSORGFRONT
 10
0
 20
0
 30
0
  9
$PUCSORGBACK
 10
0
 20
0
 30
0
  9
$USERI1
 70
    0
  9
$USERI2
 70
    0
  9
$USERI3
 70
    0
  9
$USERI4
 70
    0
  9
$USERI5
 70
    0
  9
$USERR1
 40
0
  9
$USERR2
 40
0
  9
$USERR3
 40
0
  9
$USERR4
 40
0
  9
$USERR5
 40
0
  9
$WORLDVIEW
 70
    1
  9
$SHADEDGE
 70
    3
  9
$SHADEDIF
 70
   70
  9
$TILEMODE
 70
    1
  9
$MAXACTVP
 70
   64
  9
$PINSBASE
 10
0
 20
0
 30
0
  9
$PLIMCHECK
 70
    0
  9
$PEXTMIN
 10
0
 20
0
 30
0
  9
$PEXTMAX
 10
0
 20
0
 30
0
  9
$GRIDMODE
 70
    1
  9
$SNAPSTYLE
 70
    0
  9
$PLIMMIN
 10
0
 20
0
  9
$PLIMMAX
 10
297
 20
210
  9
$UNITMODE
 70
    0
  9
$VISRETAIN
 70
    1
  9
$PLINEGEN
 70
    0
  9
$PSLTSCALE
 70
    1
  9
$TREEDEPTH
 70
 3020
  9
$CMLSTYLE
  2
Standard
  9
$CMLJUST
 70
    0
  9
$CMLSCALE
 40
20
  9
$PROXYGRAPHICS
 70
    1
  9
$MEASUREMENT
 70
    1
  9
$CELWEIGHT
370
   -1
  9
$ENDCAPS
280
    0
  9
$JOINSTYLE
280
    0
  9
$LWDISPLAY
290
    0
  9
$INSUNITS
 70
    0
  9
$HYPERLINKBASE
  1

  9
$STYLESHEET
  1

  9
$XEDIT
290
    1
  9
$CEPSNTYPE
380
    0
  9
$PSTYLEMODE
290
    1
  9
$EXTNAMES
290
    1
  9
$PSVPSCALE
 40
1
  9
$OLESTARTUP
290
    0
  9
$SORTENTS
280
  127
  9
$INDEXCTL
280
    0
  9
$HIDETEXT
280
    1
  9
$XCLIPFRAME
290
    0
  9
$HALOGAP
280
    0
  9
$OBSCOLOR
 70
  257
  9
$OBSLTYPE
280
    0
  9
$INTERSECTIONDISPLAY
280
    0
  9
$INTERSECTIONCOLOR
 70
  257
  9
$DIMASSOC
280
    1
  9
$PROJECTNAME
  1

  9
$CAMERADISPLAY
290
    0
  9
$LENSLENGTH
 40
50
  9
$CAMERAHEIGHT
 40
0
  9
$STEPSPERSEC
 40
2
  9
$STEPSIZE
 40
50
  9
$3DDWFPREC
 40
2
  9
$PSOLWIDTH
 40
5
  9
$PSOLHEIGHT
 40
80
  9
$LOFTANG1
 40
1.570796326794897
  9
$LOFTANG2
 40
1.570796326794897
  9
$LOFTMAG1
 40
0
  9
$LOFTMAG2
 40
0
  9
$LOFTPARAM
 70
    7
  9
$LOFTNORMALS
280
    1
  9
$LATITUDE
 40
1
  9
$LONGITUDE
 40
1
  9
$NORTHDIRECTION
 40
0
  9
$TIMEZONE
 70
-8000
  9
$LIGHTGLYPHDISPLAY
280
    1
  9
$TILEMODELIGHTSYNCH
280
    1
  9
$SOLIDHIST
280
    1
  9
$SHOWHIST
280
    1
  9
$DWFFRAME
280
    2
  9
$DGNFRAME
280
    0
  9
$REALWORLDSCALE
290
    1
  9
$INTERFERECOLOR
 62
    1
  9
$CSHADOW
280
    0
  9
$SHADOWPLANELOCATION
 40
0
  0
ENDSEC
  0
SECTION
  2
CLASSES
  0
ENDSEC
  0
SECTION
  2
TABLES
  0
TABLE
  2
VPORT
  5
8
330
0
100
AcDbSymbolTable
 70
    1
  0
VPORT
  5
31
330
2
100
AcDbSymbolTableRecord
100
AcDbViewportTableRecord
  2
*ACTIVE
 70
    0
 10
0
 20
0
 11
1
 21
1
 12
319.18578020487
 22
39.63744982936294
 13
0
 23
0
 14
10
 24
10
 15
10
 25
10
 16
0
 26
0
 36
1
 17
0
 27
0
 37
0
 40
632.1130156998405
 41
1.83003300330033
 42
50
 43
0
 44
0
 50
0
 51
0
 71
    0
 72
  100
 73
    1
 74
    3
 75
    0
 76
    1
 77
    0
 78
    0
281
    0
 65
    1
110
0
120
0
130
0
111
1
121
0
131
0
112
0
122
1
132
0
 79
    0
146
0
348
10020
 60
    7
 61
    5
292
1
282
    1
141
0
142
0
 63
  250
421
3358443
  0
ENDTAB
  0
TABLE
  2
LTYPE
  5
5
330
0
100
AcDbSymbolTable
 70
    4
  0
LTYPE
  5
14
330
5
100
AcDbSymbolTableRecord
100
AcDbLinetypeTableRecord
  2
ByBlock
 70
    0
  3

 72
   65
 73
    0
 40
0
  0
LTYPE
  5
15
330
5
100
AcDbSymbolTableRecord
100
AcDbLinetypeTableRecord
  2
ByLayer
 70
    0
  3

 72
   65
 73
    0
 40
0
  0
LTYPE
  5
16
330
5
100
AcDbSymbolTableRecord
100
AcDbLinetypeTableRecord
  2
Continuous
 70
    0
  3
Solid line
 72
   65
 73
    0
 40
0
  0
LTYPE
  5
32
330
5
100
AcDbSymbolTableRecord
100
AcDbLinetypeTableRecord
  2
DOT
 70
    0
  3
Dot . . . . . . . . . . . . . . . . . . . . . .
 72
   65
 73
    2
 40
6.35
 49
0
 74
    0
 49
-6.35
 74
    0
  0
LTYPE
  5
33
330
5
100
AcDbSymbolTableRecord
100
AcDbLinetypeTableRecord
  2
DOTTINY
 70
    0
  3
Dot (.15x) .....................................
 72
   65
 73
    2
 40
0.9525
 49
0
 74
    0
 49
-0.9525
 74
    0
  0
LTYPE
  5
34
330
5
100
AcDbSymbolTableRecord
100
AcDbLinetypeTableRecord
  2
DOT2
 70
    0
  3
Dot (.5x) .....................................
 72
   65
 73
    2
 40
3.175
 49
0
 74
    0
 49
-3.175
 74
    0
  0
LTYPE
  5
35
330
5
100
AcDbSymbolTableRecord
100
AcDbLinetypeTableRecord
  2
DOTX2
 70
    0
  3
Dot (2x) .  .  .  .  .  .  .  .  .  .  .  .  .
 72
   65
 73
    2
 40
12.7
 49
0
 74
    0
 49
-12.7
 74
    0
  0
LTYPE
  5
36
330
5
100
AcDbSymbolTableRecord
100
AcDbLinetypeTableRecord
  2
DASHED
 70
    0
  3
Dashed _ _ _ _ _ _ _ _ _ _ _ _ _ _ _ _ _
 72
   65
 73
    2
 40
19.05
 49
12.7
 74
    0
 49
-6.35
 74
    0
  0
LTYPE
  5
37
330
5
100
AcDbSymbolTableRecord
100
AcDbLinetypeTableRecord
  2
DASHEDTINY
 70
    0
  3
Dashed (.15x) _ _ _ _ _ _ _ _ _ _ _ _ _ _ _ _ _
 72
   65
 73
    2
 40
2.8575
 49
1.905
 74
    0
 49
-0.9525
 74
    0
  0
LTYPE
  5
38
330
5
100
AcDbSymbolTableRecord
100
AcDbLinetypeTableRecord
  2
DASHED2
 70
    0
  3
Dashed (.5x) _ _ _ _ _ _ _ _ _ _ _ _ _ _ _ _ _
 72
   65
 73
    2
 40
9.524999999999999
 49
6.35
 74
    0
 49
-3.175
 74
    0
  0
LTYPE
  5
39
330
5
100
AcDbSymbolTableRecord
100
AcDbLinetypeTableRecord
  2
DASHEDX2
 70
    0
  3
Dashed (2x) ____  ____  ____  ____  ____  ___
 72
   65
 73
    2
 40
38.09999999999999
 49
25.4
 74
    0
 49
-12.7
 74
    0
  0
LTYPE
  5
3A
330
5
100
AcDbSymbolTableRecord
100
AcDbLinetypeTableRecord
  2
DASHDOT
 70
    0
  3
Dash dot __ . __ . __ . __ . __ . __ . __ . __
 72
   65
 73
    4
 40
25.4
 49
12.7
 74
    0
 49
-6.35
 74
    0
 49
0
 74
    0
 49
-6.35
 74
    0
  0
LTYPE
  5
3B
330
5
100
AcDbSymbolTableRecord
100
AcDbLinetypeTableRecord
  2
DASHDOTTINY
 70
    0
  3
Dash dot (.15x) _._._._._._._._._._._._._._._.
 72
   65
 73
    4
 40
3.81
 49
1.905
 74
    0
 49
-0.9525
 74
    0
 49
0
 74
    0
 49
-0.9525
 74
    0
  0
LTYPE
  5
3C
330
5
100
AcDbSymbolTableRecord
100
AcDbLinetypeTableRecord
  2
DASHDOT2
 70
    0
  3
Dash dot (.5x) _._._._._._._._._._._._._._._.
 72
   65
 73
    4
 40
12.7
 49
6.35
 74
    0
 49
-3.175
 74
    0
 49
0
 74
    0
 49
-3.175
 74
    0
  0
LTYPE
  5
3D
330
5
100
AcDbSymbolTableRecord
100
AcDbLinetypeTableRecord
  2
DASHDOTX2
 70
    0
  3
Dash dot (2x) ____  .  ____  .  ____  .  ___
 72
   65
 73
    4
 40
50.8
 49
25.4
 74
    0
 49
-12.7
 74
    0
 49
0
 74
    0
 49
-12.7
 74
    0
  0
LTYPE
  5
3E
330
5
100
AcDbSymbolTableRecord
100
AcDbLinetypeTableRecord
  2
DIVIDE
 70
    0
  3
Divide ____ . . ____ . . ____ . . ____ . . ____
 72
   65
 73
    6
 40
31.75
 49
12.7
 74
    0
 49
-6.35
 74
    0
 49
0
 74
    0
 49
-6.35
 74
    0
 49
0
 74
    0
 49
-6.35
 74
    0
  0
LTYPE
  5
3F
330
5
100
AcDbSymbolTableRecord
100
AcDbLinetypeTableRecord
  2
DIVIDETINY
 70
    0
  3
Divide (.15x) __..__..__..__..__..__..__..__.._
 72
   65
 73
    6
 40
4.7625
 49
1.905
 74
    0
 49
-0.9525
 74
    0
 49
0
 74
    0
 49
-0.9525
 74
    0
 49
0
 74
    0
 49
-0.9525
 74
    0
  0
LTYPE
  5
40
330
5
100
AcDbSymbolTableRecord
100
AcDbLinetypeTableRecord
  2
DIVIDE2
 70
    0
  3
Divide (.5x) __..__..__..__..__..__..__..__.._
 72
   65
 73
    6
 40
15.875
 49
6.35
 74
    0
 49
-3.175
 74
    0
 49
0
 74
    0
 49
-3.175
 74
    0
 49
0
 74
    0
 49
-3.175
 74
    0
  0
LTYPE
  5
41
330
5
100
AcDbSymbolTableRecord
100
AcDbLinetypeTableRecord
  2
DIVIDEX2
 70
    0
  3
Divide (2x) ________  .  .  ________  .  .  _
 72
   65
 73
    6
 40
63.5
 49
25.4
 74
    0
 49
-12.7
 74
    0
 49
0
 74
    0
 49
-12.7
 74
    0
 49
0
 74
    0
 49
-12.7
 74
    0
  0
LTYPE
  5
42
330
5
100
AcDbSymbolTableRecord
100
AcDbLinetypeTableRecord
  2
BORDER
 70
    0
  3
Border __ __ . __ __ . __ __ . __ __ . __ __ .
 72
   65
 73
    6
 40
44.45
 49
12.7
 74
    0
 49
-6.35
 74
    0
 49
12.7
 74
    0
 49
-6.35
 74
    0
 49
0
 74
    0
 49
-6.35
 74
    0
  0
LTYPE
  5
43
330
5
100
AcDbSymbolTableRecord
100
AcDbLinetypeTableRecord
  2
BORDERTINY
 70
    0
  3
Border (.15x) __.__.__.__.__.__.__.__.__.__.__.
 72
   65
 73
    6
 40
6.6675
 49
1.905
 74
    0
 49
-0.9525
 74
    0
 49
1.905
 74
    0
 49
-0.9525
 74
    0
 49
0
 74
    0
 49
-0.9525
 74
    0
  0
LTYPE
  5
44
330
5
100
AcDbSymbolTableRecord
100
AcDbLinetypeTableRecord
  2
BORDER2
 70
    0
  3
Border (.5x) __.__.__.__.__.__.__.__.__.__.__.
 72
   65
 73
    6
 40
22.225
 49
6.35
 74
    0
 49
-3.175
 74
    0
 49
6.35
 74
    0
 49
-3.175
 74
    0
 49
0
 74
    0
 49
-3.175
 74
    0
  0
LTYPE
  5
45
330
5
100
AcDbSymbolTableRecord
100
AcDbLinetypeTableRecord
  2
BORDERX2
 70
    0
  3
Border (2x) ____  ____  .  ____  ____  .  ___
 72
   65
 73
    6
 40
88.89999999999999
 49
25.4
 74
    0
 49
-12.7
 74
    0
 49
25.4
 74
    0
 49
-12.7
 74
    0
 49
0
 74
    0
 49
-12.7
 74
    0
  0
LTYPE
  5
46
330
5
100
AcDbSymbolTableRecord
100
AcDbLinetypeTableRecord
  2
CENTER
 70
    0
  3
Center ____ _ ____ _ ____ _ ____ _ ____ _ ____
 72
   65
 73
    4
 40
50.8
 49
31.75
 74
    0
 49
-6.35
 74
    0
 49
6.35
 74
    0
 49
-6.35
 74
    0
  0
LTYPE
  5
47
330
5
100
AcDbSymbolTableRecord
100
AcDbLinetypeTableRecord
  2
CENTERTINY
 70
    0
  3
Center (.15x) ___ _ ___ _ ___ _ ___ _ ___ _ ___
 72
   65
 73
    4
 40
7.62
 49
4.7625
 74
    0
 49
-0.9525
 74
    0
 49
0.9525
 74
    0
 49
-0.9525
 74
    0
  0
LTYPE
  5
48
330
5
100
AcDbSymbolTableRecord
100
AcDbLinetypeTableRecord
  2
CENTER2
 70
    0
  3
Center (.5x) ___ _ ___ _ ___ _ ___ _ ___ _ ___
 72
   65
 73
    4
 40
28.575
 49
19.05
 74
    0
 49
-3.175
 74
    0
 49
3.175
 74
    0
 49
-3.175
 74
    0
  0
LTYPE
  5
49
330
5
100
AcDbSymbolTableRecord
100
AcDbLinetypeTableRecord
  2
CENTERX2
 70
    0
  3
Center (2x) ________  __  ________  __  _____
 72
   65
 73
    4
 40
101.6
 49
63.5
 74
    0
 49
-12.7
 74
    0
 49
12.7
 74
    0
 49
-12.7
 74
    0
  0
ENDTAB
  0
TABLE
  2
LAYER
  5
2
330
0
100
AcDbSymbolTable
 70
    1
  0
LAYER
  5
10
330
2
100
AcDbSymbolTableRecord
100
AcDbLayerTableRecord
  2
0
 70
    0
 62
    7
  6
CONTINUOUS
370
    0
390
F
  0
LAYER
  5
4A
330
2
100
AcDbSymbolTableRecord
100
AcDbLayerTableRecord
  2
cut
 70
    0
 62
    7
  6
CONTINUOUS
370
    0
390
F
  0
LAYER
  5
4B
330
2
100
AcDbSymbolTableRecord
100
AcDbLayerTableRecord
  2
lines
 70
    0
 62
    3
  6
CONTINUOUS
370
    0
390
F
  0
LAYER
  5
4C
330
2
100
AcDbSymbolTableRecord
100
AcDbLayerTableRecord
  2
words
 70
    0
 62
    3
  6
CONTINUOUS
370
    0
390
F
  0
ENDTAB
  0
TABLE
  2
STYLE
  5
3
330
0
100
AcDbSymbolTable
 70
    3
  0
STYLE
  5
4D
330
2
100
AcDbSymbolTableRecord
100
AcDbTextStyleTableRecord
  2
wqy-unicode
 70
    0
 40
0
 41
1
 50
0
 71
    0
 42
1
  3
wqy-unicode
  4

  0
STYLE
  5
4E
330
2
100
AcDbSymbolTableRecord
100
AcDbTextStyleTableRecord
  2
Standard
 70
    0
 40
0
 41
1
 50
0
 71
    0
 42
1
  3
txt
  4

  0
ENDTAB
  0
TABLE
  2
VIEW
  5
6
330
0
100
AcDbSymbolTable
 70
    0
  0
ENDTAB
  0
TABLE
  2
UCS
  5
7
330
0
100
AcDbSymbolTable
 70
    0
  0
ENDTAB
  0
TABLE
  2
APPID
  5
9
330
0
100
AcDbSymbolTable
 70
    1
  0
APPID
  5
12
330
9
100
AcDbSymbolTableRecord
100
AcDbRegAppTableRecord
  2
ACAD
 70
    0
  0
APPID
  5
4F
330
9
100
AcDbSymbolTableRecord
100
AcDbRegAppTableRecord
  2
LibreCad
 70
    0
  0
ENDTAB
  0
TABLE
  2
DIMSTYLE
  5
A
330
0
100
AcDbSymbolTable
 70
    1
100
AcDbDimStyleTable
 71
    1
  0
DIMSTYLE
105
50
330
A
100
AcDbSymbolTableRecord
100
AcDbDimStyleTableRecord
  2
Standard
 70
    0
 40
2.5
 41
2.5
 42
0.625
 43
0.38
 44
1.25
 45
0
 46
0
 47
0
 48
0
 49
1
140
2.5
141
0.09
142
0
143
25.4
144
1
145
0
146
1
147
0.625
148
0
 71
    0
 72
    0
 73
    0
 74
    1
 75
    0
 76
    0
 77
    0
 78
    8
 79
    0
170
    0
171
    2
172
    0
173
    0
174
    0
175
    0
176
    0
177
    0
178
    0
179
    0
271
    2
272
    4
273
    2
274
    2
275
    0
276
    0
277
    2
278
   44
279
    0
280
    0
281
    0
282
    0
283
    1
284
    0
285
    0
286
    0
288
    0
289
    3
340
STANDARD
341

371
   -2
372
   -2
  0
ENDTAB
  0
TABLE
  2
BLOCK_RECORD
  5
1
330
0
100
AcDbSymbolTable
 70
    2
  0
BLOCK_RECORD
  5
1F
330
1
100
AcDbSymbolTableRecord
100
AcDbBlockTableRecord
  2
*Model_Space
 70
    0
280
    1
281
    0
  0
BLOCK_RECORD
  5
1E
330
1
100
AcDbSymbolTableRecord
100
AcDbBlockTableRecord
  2
*Paper_Space
 70
    0
280
    1
281
    0
  0
ENDTAB
  0
ENDSEC
  0
SECTION
  2
BLOCKS
  0
BLOCK
  5
20
330
1F
100
AcDbEntity
  8
0
100
AcDbBlockBegin
  2
*Model_Space
 70
    0
 10
0
 20
0
 30
0
  3
*Model_Space
  1

  0
ENDBLK
  5
21
330
1F
100
AcDbEntity
  8
0
100
AcDbBlockEnd
  0
BLOCK
  5
1C
330
1B
100
AcDbEntity
  8
0
100
AcDbBlockBegin
  2
*Paper_Space
 70
    0
 10
0
 20
0
 30
0
  3
*Paper_Space
  1

  0
ENDBLK
  5
1D
330
1F
100
AcDbEntity
  8
0
100
AcDbBlockEnd
  0
ENDSEC
  0
SECTION
  2
ENTITIES
  0
MTEXT
  5
51
100
AcDbEntity
  8
words
  6
ByLayer
 62
  256
370
   -1
100
AcDbMText
 10
2.371177267971181
 20
-104.9732228635658
 30
0
 40
10
 41
11.76666666666667
 71
    1
 72
    1
  1
三
  7
wqy-unicode
210
0
220
0
230
1
 50
1.294000000000062
 73
    2
 44
1
  0
MTEXT
  5
52
100
AcDbEntity
  8
words
  6
ByLayer
 62
  256
370
   -1
100
AcDbMText
 10
20.56356261134706
 20
-102.9666931232095
 30
0
 40
10
 41
12.26666666666667
 71
    1
 72
    1
  1
和
  7
wqy-unicode
210
0
220
0
230
1
 50
11.29400000000005
 73
    2
 44
1
  0
MTEXT
  5
53
100
AcDbEntity
  8
words
  6
ByLayer
 62
  256
370
   -1
100
AcDbMText
 10
38.13113451044193
 20
-97.83157251596532
 30
0
 40
10
 41
12.75555555555556
 71
    1
 72
    1
  1
跑
  7
wqy-unicode
210
0
220
0
230
1
 50
21.29400000000004
 73
    2
 44
1
  0
MTEXT
  5
54
100
AcDbEntity
  8
words
  6
ByLayer
 62
  256
370
   -1
100
AcDbMText
 10
54.54011118272211
 20
-89.72388908298787
 30
0
 40
10
 41
12.81111111111111
 71
    1
 72
    1
  1
超
  7
wqy-unicode
210
0
220
0
230
1
 50
31.29400000000003
 73
    2
 44
1
  0
MTEXT
  5
55
100
AcDbEntity
  8
words
  6
ByLayer
 62
  256
370
   -1
100
AcDbMText
 10
69.29191417534321
 20
-78.8899906827024
 30
0
 40
10
 41
12.85555555555556
 71
    1
 72
    1
  1
快
  7
wqy-unicode
210
0
220
0
230
1
 50
41.29400000000002
 73
    2
 44
1
  0
ARC
  5
56
100
AcDbEntity
  8
lines
  6
ByLayer
 62
  256
370
   -1
100
AcDbCircle
 10
-47.49835535132704
 20
37.91886834837698
 40
88.91110800000006
100
AcDbArc
 50
262.0109004893169
 51
352.0109012592095
  0
ARC
  5
57
100
AcDbEntity
  8
lines
  6
ByLayer
 62
  256
370
   -1
100
AcDbCircle
 10
-32.05136034663404
 20
49.56362141104752
 40
143.6256350481898
100
AcDbArc
 50
262.0109
 51
352.6412491271854
  0
ARC
  5
58
100
AcDbEntity
  8
lines
  6
ByLayer
 62
  256
370
   -1
100
AcDbCircle
 10
-120.0995438772445
 20
61.92090682280323
 40
232.5367430481898
100
AcDbArc
 50
352.0108998150788
 51
352.3988058347539
  0
ARC
  5
59
100
AcDbEntity
  8
lines
  6
ByLayer
 62
  256
370
   -1
100
AcDbCircle
 10
-101.6818520077239
 20
45.52335124948971
 40
143.6256350481898
100
AcDbArc
 50
352.0108999999999
 51
23.9868706073731
  0
ARC
  5
5A
100
AcDbEntity
  8
lines
  6
ByLayer
 62
  256
370
   -1
100
AcDbCircle
 10
-90.03709894505342
 20
30.07635624479673
 40
88.91110800000006
100
AcDbArc
 50
352.0109004893169
 51
56.06473077414324
  0
ARC
  5
5B
100
AcDbEntity
  8
lines
  6
ByLayer
 62
  256
370
   -1
100
AcDbCircle
 10
-34.76703703812036
 20
18.27373398970285
 40
88.91110800000006
100
AcDbArc
 50
217.0109004893169
 51
307.0109012592094
  0
ARC
  5
5C
100
AcDbEntity
  8
lines
  6
ByLayer
 62
  256
370
   -1
100
AcDbCircle
 10
-70.39196458637926
 20
42.8076745580034
 40
88.91110800000006
100
AcDbArc
 50
307.010900489317
 51
37.01090125920957
  0
ARC
  5
5D
100
AcDbEntity
  8
lines
  6
ByLayer
 62
  256
370
   -1
100
AcDbCircle
 10
-67.70337352546328
 20
61.96443333063369
 40
143.6256350481898
100
AcDbArc
 50
307.0108999999999
 51
7.138597850877396
  0
ARC
  5
5E
100
AcDbEntity
  8
lines
  6
ByLayer
 62
  256
370
   -1
100
AcDbCircle
 10
-114.0826639273101
 20
9.871338070660483
 40
143.6256350481898
100
AcDbArc
 50
37.01089999999999
 51
43.52543879136156
  0
ARC
  5
5F
100
AcDbEntity
  8
lines
  6
ByLayer
 62
  256
370
   -1
100
AcDbCircle
 10
-94.92590515467984
 20
7.182747009744507
 40
88.91110800000006
100
AcDbArc
 50
37.01090048931692
 51
72.44385703719762
  0
SPLINE
  5
60
100
AcDbEntity
  8
lines
  6
ByLayer
 62
  256
370
   -1
100
AcDbSpline
210
0
220
0
230
0
 70
    8
 71
    3
 72
    8
 73
    4
 74
    0
 42
1e-07
 43
1e-07
 40
0
 40
0
 40
0
 40
0
 40
1
 40
1
 40
1
 40
1
 10
-71.6857870856122
 20
12.72862464063342
 30
0
 10
-64.84647109640007
 20
12.72824049972368
 30
0
 10
-64.84584943829739
 20
23.79635663538792
 30
0
 10
-64.84584943829739
 20
23.79635663538792
 30
0
  0
SPLINE
  5
61
100
AcDbEntity
  8
lines
  6
ByLayer
 62
  256
370
   -1
100
AcDbSpline
210
0
220
0
230
0
 70
    8
 71
    3
 72
    8
 73
    4
 74
    0
 42
1e-07
 43
1e-07
 40
0
 40
0
 40
0
 40
0
 40
1
 40
1
 40
1
 40
1
 10
-58.00715510718793
 20
12.72785635881395
 30
0
 10
-64.84647109640007
 20
12.72824049972368
 30
0
 10
-64.84584943829739
 20
23.79635663538792
 30
0
 10
-64.84584943829739
 20
23.79635663538792
 30
0
  0
SPLINE
  5
62
100
AcDbEntity
  8
lines
  6
ByLayer
 62
  256
370
   -1
100
AcDbSpline
210
0
220
0
230
0
 70
    8
 71
    3
 72
    8
 73
    4
 74
    0
 42
1e-07
 43
1e-07
 40
0
 40
0
 40
0
 40
0
 40
1
 40
1
 40
1
 40
1
 10
-71.6857870856122
 20
12.72862464063342
 30
0
 10
-64.84647109640007
 20
12.72824049972369
 30
0
 10
-64.84709275450274
 20
1.660124364059449
 30
0
 10
-64.84709275450274
 20
1.660124364059449
 30
0
  0
SPLINE
  5
63
100
AcDbEntity
  8
lines
  6
ByLayer
 62
  256
370
   -1
100
AcDbSpline
210
0
220
0
230
0
 70
    8
 71
    3
 72
    8
 73
    4
 74
    0
 42
1e-07
 43
1e-07
 40
0
 40
0
 40
0
 40
0
 40
1
 40
1
 40
1
 40
1
 10
-58.00715510718793
 20
12.72785635881395
 30
0
 10
-64.84647109640007
 20
12.72824049972369
 30
0
 10
-64.84709275450274
 20
1.660124364059449
 30
0
 10
-64.84709275450274
 20
1.660124364059449
 30
0
  0
LINE
  5
64
100
AcDbEntity
  8
lines
  6
ByLayer
 62
  256
370
   -1
100
AcDbLine
 10
-58.52840289436655
 20
27.98244462796463
 11
-55.91090521695347
 21
34.30106388034831
  0
LINE
  5
65
100
AcDbEntity
  8
lines
  6
ByLayer
 62
  256
370
   -1
100
AcDbLine
 10
-61.14590057177961
 20
21.66382537558095
 11
-58.52840289436655
 21
27.98244462796463
  0
LINE
  5
66
100
AcDbEntity
  8
lines
  6
ByLayer
 62
  256
370
   -1
100
AcDbLine
 10
-49.5932809531855
 20
6.407724710127755
 11
-43.27478610023996
 21
3.789926753608322
  0
LINE
  5
67
100
AcDbEntity
  8
lines
  6
ByLayer
 62
  256
370
   -1
100
AcDbLine
 10
-55.91177580613102
 20
9.025522666647198
 11
-49.5932809531855
 21
6.407724710127755
  0
LINE
  5
68
100
AcDbEntity
  8
lines
  6
ByLayer
 62
  256
370
   -1
100
AcDbLine
 10
-80.09966123961465
 20
19.0487562893196
 11
-86.4181560925602
 21
21.66655424583902
  0
LINE
  5
69
100
AcDbEntity
  8
lines
  6
ByLayer
 62
  256
370
   -1
100
AcDbLine
 10
-73.78116638666916
 20
16.43095833280016
 11
-80.09966123961465
 21
19.0487562893196
  0
LINE
  5
6A
100
AcDbEntity
  8
lines
  6
ByLayer
 62
  256
370
   -1
100
AcDbLine
 10
-71.16453929843358
 20
-2.525963628517262
 11
-73.78203697584664
 21
-8.844582880900944
  0
LINE
  5
6B
100
AcDbEntity
  8
lines
  6
ByLayer
 62
  256
370
   -1
100
AcDbLine
 10
-68.54704162102051
 20
3.792655623866434
 11
-71.16453929843358
 21
-2.525963628517262
  0
LINE
  5
6C
100
AcDbEntity
  8
lines
  6
ByLayer
 62
  256
370
   -1
100
AcDbLine
 10
-71.16527340742608
 20
27.9821405500637
 11
-73.78236157108363
 21
34.30092942859889
  0
LINE
  5
6D
100
AcDbEntity
  8
lines
  6
ByLayer
 62
  256
370
   -1
100
AcDbLine
 10
-68.54818524376853
 20
21.6633516715285
 11
-71.16527340742608
 21
27.9821405500637
  0
LINE
  5
6E
100
AcDbEntity
  8
lines
  6
ByLayer
 62
  256
370
   -1
100
AcDbLine
 10
-49.59155733598532
 20
19.04459510929859
 11
-43.27264409174406
 21
21.66138297987751
  0
LINE
  5
6F
100
AcDbEntity
  8
lines
  6
ByLayer
 62
  256
370
   -1
100
AcDbLine
 10
-55.91047058022659
 20
16.42780723871971
 11
-49.59155733598532
 21
19.04459510929859
  0
LINE
  5
70
100
AcDbEntity
  8
lines
  6
ByLayer
 62
  256
370
   -1
100
AcDbLine
 10
-80.10138485681483
 20
6.411885890148778
 11
-86.4202981010561
 21
3.795098019569849
  0
LINE
  5
71
100
AcDbEntity
  8
lines
  6
ByLayer
 62
  256
370
   -1
100
AcDbLine
 10
-73.78247161257359
 20
9.028673760727653
 11
-80.10138485681483
 21
6.411885890148778
  0
LINE
  5
72
100
AcDbEntity
  8
lines
  6
ByLayer
 62
  256
370
   -1
100
AcDbLine
 10
-58.52766878537408
 20
-2.5256595506163
 11
-55.91058062171651
 21
-8.844448429151489
  0
LINE
  5
73
100
AcDbEntity
  8
lines
  6
ByLayer
 62
  256
370
   -1
100
AcDbLine
 10
-61.14475694903164
 20
3.793129327918903
 11
-58.52766878537408
 21
-2.5256595506163
  0
LINE
  5
74
100
AcDbEntity
  8
lines
  6
ByLayer
 62
  256
370
   -1
100
AcDbLine
 10
-50.18281846437942
 20
27.39226128512509
 11
-42.35754748915278
 21
35.21702512277542
  0
LINE
  5
75
100
AcDbEntity
  8
lines
  6
ByLayer
 62
  256
370
   -1
100
AcDbLine
 10
-58.00808943960603
 20
19.56749744747476
 11
-50.18281846437942
 21
27.39226128512509
  0
LINE
  5
76
100
AcDbEntity
  8
lines
  6
ByLayer
 62
  256
370
   -1
100
AcDbLine
 10
-79.51049188180147
 20
27.39189313174434
 11
-87.33525571945181
 21
35.21716410697097
  0
LINE
  5
77
100
AcDbEntity
  8
lines
  6
ByLayer
 62
  256
370
   -1
100
AcDbLine
 10
-71.68572804415115
 20
19.56662215651772
 11
-79.51049188180147
 21
27.39189313174434
  0
LINE
  5
78
100
AcDbEntity
  8
lines
  6
ByLayer
 62
  256
370
   -1
100
AcDbLine
 10
-79.51012372842072
 20
-1.935780285677724
 11
-87.33539470364735
 21
-9.760544123328055
  0
LINE
  5
79
100
AcDbEntity
  8
lines
  6
ByLayer
 62
  256
370
   -1
100
AcDbLine
 10
-71.68485275319411
 20
5.888983551972609
 11
-79.51012372842072
 21
-1.935780285677724
  0
LINE
  5
7A
100
AcDbEntity
  8
lines
  6
ByLayer
 62
  256
370
   -1
100
AcDbLine
 10
-50.18245031099866
 20
-1.935412132296969
 11
-42.35768647334832
 21
-9.760683107523606
  0
LINE
  5
7B
100
AcDbEntity
  8
lines
  6
ByLayer
 62
  256
370
   -1
100
AcDbLine
 10
-58.00721414864899
 20
5.889858842929649
 11
-50.18245031099866
 21
-1.935412132296969
  0
LINE
  5
7C
100
AcDbEntity
  8
lines
  6
ByLayer
 62
  256
370
   -1
100
AcDbLine
 10
-64.846892309079
 20
46.28270049282241
 11
-64.84631208141235
 21
64.18826223122242
  0
LINE
  5
7D
100
AcDbEntity
  8
lines
  6
ByLayer
 62
  256
370
   -1
100
AcDbLine
 10
-64.84747253674563
 20
28.37713875442246
 11
-64.846892309079
 21
46.28270049282241
  0
LINE
  5
7E
100
AcDbEntity
  8
lines
  6
ByLayer
 62
  256
370
   -1
100
AcDbLine
 10
-64.84604988372121
 20
-20.82621949337509
 11
-64.84663011138784
 21
-38.73178123177509
  0
LINE
  5
7F
100
AcDbEntity
  8
lines
  6
ByLayer
 62
  256
370
   -1
100
AcDbLine
 10
-64.84546965605458
 20
-2.920657754975128
 11
-64.84604988372121
 21
-20.82621949337509
  0
LINE
  5
80
100
AcDbEntity
  8
lines
  6
ByLayer
 62
  256
370
   -1
100
AcDbLine
 10
-77.01713441587034
 20
-16.65495322047481
 11
-75.103749503571
 21
-12.03554219985917
  0
LINE
  5
81
100
AcDbEntity
  8
lines
  6
ByLayer
 62
  256
370
   -1
100
AcDbLine
 10
-52.67537412866557
 20
-16.65477359748242
 11
-54.58882353992385
 21
-12.03538929321035
  0
LINE
  5
82
100
AcDbEntity
  8
lines
  6
ByLayer
 62
  256
370
   -1
100
AcDbLine
 10
-35.46327737620162
 20
0.5575771802534426
 11
-40.08268839681726
 21
2.470962092552792
  0
LINE
  5
83
100
AcDbEntity
  8
lines
  6
ByLayer
 62
  256
370
   -1
100
AcDbLine
 10
-35.463456999194
 20
24.89933746745822
 11
-40.08284130346608
 21
22.98588805619993
  0
LINE
  5
84
100
AcDbEntity
  8
lines
  6
ByLayer
 62
  256
370
   -1
100
AcDbLine
 10
-52.67580777692987
 20
42.11143421992217
 11
-54.58919268922922
 21
37.49202319930653
  0
LINE
  5
85
100
AcDbEntity
  8
lines
  6
ByLayer
 62
  256
370
   -1
100
AcDbLine
 10
-77.01756806413465
 20
42.11125459692979
 11
-75.10411865287637
 21
37.49187029265771
  0
LINE
  5
86
100
AcDbEntity
  8
lines
  6
ByLayer
 62
  256
370
   -1
100
AcDbLine
 10
-94.22966481659859
 20
24.89890381919392
 11
-89.61025379598296
 21
22.98551890689457
  0
LINE
  5
87
100
AcDbEntity
  8
lines
  6
ByLayer
 62
  256
370
   -1
100
AcDbLine
 10
-94.22948519360622
 20
0.5571435319891425
 11
-89.61010088933413
 21
2.47059294324743
  0
LINE
  5
88
100
AcDbEntity
  8
lines
  6
ByLayer
 62
  256
370
   -1
100
AcDbLine
 10
-91.56161509308971
 20
12.72759765979733
 11
-102.6278608350806
 21
12.72795626021653
  0
LINE
  5
89
100
AcDbEntity
  8
lines
  6
ByLayer
 62
  256
370
   -1
100
AcDbLine
 10
-80.49536935109889
 20
12.72723905937814
 11
-91.56161509308971
 21
12.72759765979733
  0
LINE
  5
8A
100
AcDbEntity
  8
lines
  6
ByLayer
 62
  256
370
   -1
100
AcDbLine
 10
-38.13132709971048
 20
12.72888333965
 11
-27.06508135771962
 21
12.72852473923081
  0
LINE
  5
8B
100
AcDbEntity
  8
lines
  6
ByLayer
 62
  256
370
   -1
100
AcDbLine
 10
-49.1975728417013
 20
12.72924194006919
 11
-38.13132709971048
 21
12.72888333965
  0
ARC
  5
8C
100
AcDbEntity
  8
lines
  6
ByLayer
 62
  256
370
   -1
100
AcDbCircle
 10
312.1326388512744
 20
37.91886834837698
 40
88.91110800000006
100
AcDbArc
 50
187.9890987407905
 51
277.989099510683
  0
ARC
  5
8D
100
AcDbEntity
  8
lines
  6
ByLayer
 62
  256
370
   -1
100
AcDbCircle
 10
296.6856438465814
 20
49.56362141104749
 40
143.6256350481898
100
AcDbArc
 50
187.3587508728146
 51
277.9891
  0
ARC
  5
8E
100
AcDbEntity
  8
lines
  6
ByLayer
 62
  256
370
   -1
100
AcDbCircle
 10
384.7338273771919
 20
61.92090682280323
 40
232.5367430481898
100
AcDbArc
 50
187.6011941652461
 51
187.9891001849212
  0
ARC
  5
8F
100
AcDbEntity
  8
lines
  6
ByLayer
 62
  256
370
   -1
100
AcDbCircle
 10
366.3161355076713
 20
45.52335124948971
 40
143.6256350481898
100
AcDbArc
 50
156.0131293926269
 51
187.9891000000001
  0
ARC
  5
90
100
AcDbEntity
  8
lines
  6
ByLayer
 62
  256
370
   -1
100
AcDbCircle
 10
354.6713824450007
 20
30.07635624479672
 40
88.91110800000006
100
AcDbArc
 50
123.9352692258568
 51
187.9890995106831
  0
ARC
  5
91
100
AcDbEntity
  8
lines
  6
ByLayer
 62
  256
370
   -1
100
AcDbCircle
 10
299.4013205380677
 20
18.27373398970288
 40
88.91110800000006
100
AcDbArc
 50
232.9890987407905
 51
322.9890995106831
  0
ARC
  5
92
100
AcDbEntity
  8
lines
  6
ByLayer
 62
  256
370
   -1
100
AcDbCircle
 10
335.0262480863266
 20
42.80767455800337
 40
88.91110800000006
100
AcDbArc
 50
142.9890987407904
 51
232.989099510683
  0
ARC
  5
93
100
AcDbEntity
  8
lines
  6
ByLayer
 62
  256
370
   -1
100
AcDbCircle
 10
332.3376570254106
 20
61.96443333063367
 40
143.6256350481898
100
AcDbArc
 50
172.8614021491226
 51
232.9891000000001
  0
ARC
  5
94
100
AcDbEntity
  8
lines
  6
ByLayer
 62
  256
370
   -1
100
AcDbCircle
 10
378.7169474272574
 20
9.871338070660487
 40
143.6256350481898
100
AcDbArc
 50
136.4745612086384
 51
142.9891
  0
ARC
  5
95
100
AcDbEntity
  8
lines
  6
ByLayer
 62
  256
370
   -1
100
AcDbCircle
 10
359.5601886546272
 20
7.182747009744499
 40
88.91110800000006
100
AcDbArc
 50
107.5561429628024
 51
142.9890995106831
  0
SPLINE
  5
96
100
AcDbEntity
  8
lines
  6
ByLayer
 62
  256
370
   -1
100
AcDbSpline
210
0
220
0
230
0
 70
    8
 71
    3
 72
    8
 73
    4
 74
    0
 42
1e-07
 43
1e-07
 40
0
 40
0
 40
0
 40
0
 40
1
 40
1
 40
1
 40
1
 10
336.3200705855596
 20
12.72862464063343
 30
0
 10
329.4807545963474
 20
12.72824049972368
 30
0
 10
329.4801329382448
 20
23.79635663538792
 30
0
 10
329.4801329382448
 20
23.79635663538792
 30
0
  0
SPLINE
  5
97
100
AcDbEntity
  8
lines
  6
ByLayer
 62
  256
370
   -1
100
AcDbSpline
210
0
220
0
230
0
 70
    8
 71
    3
 72
    8
 73
    4
 74
    0
 42
1e-07
 43
1e-07
 40
0
 40
0
 40
0
 40
0
 40
1
 40
1
 40
1
 40
1
 10
322.6414386071353
 20
12.72785635881396
 30
0
 10
329.4807545963474
 20
12.72824049972368
 30
0
 10
329.4801329382448
 20
23.79635663538792
 30
0
 10
329.4801329382448
 20
23.79635663538792
 30
0
  0
SPLINE
  5
98
100
AcDbEntity
  8
lines
  6
ByLayer
 62
  256
370
   -1
100
AcDbSpline
210
0
220
0
230
0
 70
    8
 71
    3
 72
    8
 73
    4
 74
    0
 42
1e-07
 43
1e-07
 40
0
 40
0
 40
0
 40
0
 40
1
 40
1
 40
1
 40
1
 10
336.3200705855596
 20
12.72862464063343
 30
0
 10
329.4807545963474
 20
12.72824049972368
 30
0
 10
329.4813762544501
 20
1.660124364059435
 30
0
 10
329.4813762544501
 20
1.660124364059435
 30
0
  0
SPLINE
  5
99
100
AcDbEntity
  8
lines
  6
ByLayer
 62
  256
370
   -1
100
AcDbSpline
210
0
220
0
230
0
 70
    8
 71
    3
 72
    8
 73
    4
 74
    0
 42
1e-07
 43
1e-07
 40
0
 40
0
 40
0
 40
0
 40
1
 40
1
 40
1
 40
1
 10
322.6414386071353
 20
12.72785635881396
 30
0
 10
329.4807545963474
 20
12.72824049972368
 30
0
 10
329.4813762544501
 20
1.660124364059435
 30
0
 10
329.4813762544501
 20
1.660124364059435
 30
0
  0
LINE
  5
9A
100
AcDbEntity
  8
lines
  6
ByLayer
 62
  256
370
   -1
100
AcDbLine
 10
323.1626863943139
 20
27.98244462796465
 11
320.5451887169008
 21
34.30106388034828
  0
LINE
  5
9B
100
AcDbEntity
  8
lines
  6
ByLayer
 62
  256
370
   -1
100
AcDbLine
 10
325.780184071727
 20
21.66382537558096
 11
323.1626863943139
 21
27.98244462796465
  0
LINE
  5
9C
100
AcDbEntity
  8
lines
  6
ByLayer
 62
  256
370
   -1
100
AcDbLine
 10
314.2275644531329
 20
6.407724710127749
 11
307.9090696001873
 21
3.789926753608333
  0
LINE
  5
9D
100
AcDbEntity
  8
lines
  6
ByLayer
 62
  256
370
   -1
100
AcDbLine
 10
320.5460593060783
 20
9.025522666647184
 11
314.2275644531329
 21
6.407724710127749
  0
LINE
  5
9E
100
AcDbEntity
  8
lines
  6
ByLayer
 62
  256
370
   -1
100
AcDbLine
 10
344.733944739562
 20
19.04875628931962
 11
351.0524395925075
 21
21.66655424583902
  0
LINE
  5
9F
100
AcDbEntity
  8
lines
  6
ByLayer
 62
  256
370
   -1
100
AcDbLine
 10
338.4154498866165
 20
16.43095833280016
 11
344.733944739562
 21
19.04875628931962
  0
LINE
  5
A0
100
AcDbEntity
  8
lines
  6
ByLayer
 62
  256
370
   -1
100
AcDbLine
 10
335.7988227983809
 20
-2.525963628517259
 11
338.416320475794
 21
-8.844582880900944
  0
LINE
  5
A1
100
AcDbEntity
  8
lines
  6
ByLayer
 62
  256
370
   -1
100
AcDbLine
 10
333.1813251209679
 20
3.792655623866441
 11
335.7988227983809
 21
-2.525963628517259
  0
LINE
  5
A2
100
AcDbEntity
  8
lines
  6
ByLayer
 62
  256
370
   -1
100
AcDbLine
 10
335.7995569073734
 20
27.98214055006368
 11
338.416645071031
 21
34.30092942859889
  0
LINE
  5
A3
100
AcDbEntity
  8
lines
  6
ByLayer
 62
  256
370
   -1
100
AcDbLine
 10
333.1824687437158
 20
21.66335167152853
 11
335.7995569073734
 21
27.98214055006368
  0
LINE
  5
A4
100
AcDbEntity
  8
lines
  6
ByLayer
 62
  256
370
   -1
100
AcDbLine
 10
314.2258408359327
 20
19.0445951092986
 11
307.9069275916914
 21
21.66138297987752
  0
LINE
  5
A5
100
AcDbEntity
  8
lines
  6
ByLayer
 62
  256
370
   -1
100
AcDbLine
 10
320.5447540801739
 20
16.42780723871971
 11
314.2258408359327
 21
19.0445951092986
  0
LINE
  5
A6
100
AcDbEntity
  8
lines
  6
ByLayer
 62
  256
370
   -1
100
AcDbLine
 10
344.7356683567622
 20
6.411885890148785
 11
351.0545816010035
 21
3.795098019569849
  0
LINE
  5
A7
100
AcDbEntity
  8
lines
  6
ByLayer
 62
  256
370
   -1
100
AcDbLine
 10
338.4167551125209
 20
9.02867376072766
 11
344.7356683567622
 21
6.411885890148785
  0
LINE
  5
A8
100
AcDbEntity
  8
lines
  6
ByLayer
 62
  256
370
   -1
100
AcDbLine
 10
323.1619522853214
 20
-2.525659550616293
 11
320.5448641216639
 21
-8.844448429151479
  0
LINE
  5
A9
100
AcDbEntity
  8
lines
  6
ByLayer
 62
  256
370
   -1
100
AcDbLine
 10
325.779040448979
 20
3.793129327918907
 11
323.1619522853214
 21
-2.525659550616293
  0
LINE
  5
AA
100
AcDbEntity
  8
lines
  6
ByLayer
 62
  256
370
   -1
100
AcDbLine
 10
314.8171019643268
 20
27.39226128512511
 11
306.9918309891001
 21
35.21702512277542
  0
LINE
  5
AB
100
AcDbEntity
  8
lines
  6
ByLayer
 62
  256
370
   -1
100
AcDbLine
 10
322.6423729395534
 20
19.56749744747474
 11
314.8171019643268
 21
27.39226128512511
  0
LINE
  5
AC
100
AcDbEntity
  8
lines
  6
ByLayer
 62
  256
370
   -1
100
AcDbLine
 10
344.1447753817488
 20
27.39189313174431
 11
351.9695392193992
 21
35.217164106971
  0
LINE
  5
AD
100
AcDbEntity
  8
lines
  6
ByLayer
 62
  256
370
   -1
100
AcDbLine
 10
336.3200115440985
 20
19.56662215651773
 11
344.1447753817488
 21
27.39189313174431
  0
LINE
  5
AE
100
AcDbEntity
  8
lines
  6
ByLayer
 62
  256
370
   -1
100
AcDbLine
 10
344.1444072283681
 20
-1.935780285677721
 11
351.9696782035947
 21
-9.760544123328065
  0
LINE
  5
AF
100
AcDbEntity
  8
lines
  6
ByLayer
 62
  256
370
   -1
100
AcDbLine
 10
336.3191362531414
 20
5.888983551972621
 11
344.1444072283681
 21
-1.935780285677721
  0
LINE
  5
B0
100
AcDbEntity
  8
lines
  6
ByLayer
 62
  256
370
   -1
100
AcDbLine
 10
314.816733810946
 20
-1.93541213229698
 11
306.9919699732957
 21
-9.760683107523603
  0
LINE
  5
B1
100
AcDbEntity
  8
lines
  6
ByLayer
 62
  256
370
   -1
100
AcDbLine
 10
322.6414976485963
 20
5.889858842929661
 11
314.816733810946
 21
-1.93541213229698
  0
LINE
  5
B2
100
AcDbEntity
  8
lines
  6
ByLayer
 62
  256
370
   -1
100
AcDbLine
 10
329.4811758090264
 20
46.28270049282241
 11
329.4805955813597
 21
64.18826223122245
  0
LINE
  5
B3
100
AcDbEntity
  8
lines
  6
ByLayer
 62
  256
370
   -1
100
AcDbLine
 10
329.481756036693
 20
28.37713875442244
 11
329.4811758090264
 21
46.28270049282241
  0
LINE
  5
B4
100
AcDbEntity
  8
lines
  6
ByLayer
 62
  256
370
   -1
100
AcDbLine
 10
329.4803333836686
 20
-20.8262194933751
 11
329.4809136113352
 21
-38.73178123177509
  0
LINE
  5
B5
100
AcDbEntity
  8
lines
  6
ByLayer
 62
  256
370
   -1
100
AcDbLine
 10
329.4797531560019
 20
-2.920657754975121
 11
329.4803333836686
 21
-20.8262194933751
  0
LINE
  5
B6
100
AcDbEntity
  8
lines
  6
ByLayer
 62
  256
370
   -1
100
AcDbLine
 10
341.6514179158177
 20
-16.65495322047481
 11
339.7380330035184
 21
-12.03554219985916
  0
LINE
  5
B7
100
AcDbEntity
  8
lines
  6
ByLayer
 62
  256
370
   -1
100
AcDbLine
 10
317.3096576286129
 20
-16.65477359748244
 11
319.2231070398712
 21
-12.03538929321034
  0
LINE
  5
B8
100
AcDbEntity
  8
lines
  6
ByLayer
 62
  256
370
   -1
100
AcDbLine
 10
300.097560876149
 20
0.5575771802534497
 11
304.7169718967646
 21
2.470962092552799
  0
LINE
  5
B9
100
AcDbEntity
  8
lines
  6
ByLayer
 62
  256
370
   -1
100
AcDbLine
 10
300.0977404991414
 20
24.89933746745822
 11
304.7171248034134
 21
22.98588805619995
  0
LINE
  5
BA
100
AcDbEntity
  8
lines
  6
ByLayer
 62
  256
370
   -1
100
AcDbLine
 10
317.3100912768772
 20
42.11143421992215
 11
319.2234761891766
 21
37.4920231993065
  0
LINE
  5
BB
100
AcDbEntity
  8
lines
  6
ByLayer
 62
  256
370
   -1
100
AcDbLine
 10
341.651851564082
 20
42.1112545969298
 11
339.7384021528237
 21
37.49187029265774
  0
LINE
  5
BC
100
AcDbEntity
  8
lines
  6
ByLayer
 62
  256
370
   -1
100
AcDbLine
 10
358.8639483165459
 20
24.89890381919392
 11
354.2445372959303
 21
22.98551890689459
  0
LINE
  5
BD
100
AcDbEntity
  8
lines
  6
ByLayer
 62
  256
370
   -1
100
AcDbLine
 10
358.8637686935535
 20
0.5571435319891389
 11
354.2443843892815
 21
2.47059294324742
  0
LINE
  5
BE
100
AcDbEntity
  8
lines
  6
ByLayer
 62
  256
370
   -1
100
AcDbLine
 10
356.195898593037
 20
12.72759765979732
 11
367.2621443350279
 21
12.72795626021653
  0
LINE
  5
BF
100
AcDbEntity
  8
lines
  6
ByLayer
 62
  256
370
   -1
100
AcDbLine
 10
345.1296528510462
 20
12.72723905937813
 11
356.195898593037
 21
12.72759765979732
  0
LINE
  5
C0
100
AcDbEntity
  8
lines
  6
ByLayer
 62
  256
370
   -1
100
AcDbLine
 10
302.7656105996578
 20
12.72888333964999
 11
291.699364857667
 21
12.7285247392308
  0
LINE
  5
C1
100
AcDbEntity
  8
lines
  6
ByLayer
 62
  256
370
   -1
100
AcDbLine
 10
313.8318563416486
 20
12.72924194006918
 11
302.7656105996578
 21
12.72888333964999
  0
MTEXT
  5
C2
100
AcDbEntity
  8
words
  6
ByLayer
 62
  256
370
   -1
100
AcDbMText
 10
202.608858348308
 20
-84.72217321786778
 30
0
 40
10
 41
12.26666666666667
 71
    1
 72
    1
  1
測
  7
wqy-unicode
210
0
220
0
230
1
 50
325.086
 73
    2
 44
1
  0
MTEXT
  5
C3
100
AcDbEntity
  8
words
  6
ByLayer
 62
  256
370
   -1
100
AcDbMText
 10
182.7946114881605
 20
-65.78197386064934
 30
0
 40
10
 41
12.53333333333333
 71
    1
 72
    1
  1
學
  7
wqy-unicode
210
0
220
0
230
1
 50
310.086
 73
    2
 44
1
  0
MTEXT
  5
C4
100
AcDbEntity
  8
words
  6
ByLayer
 62
  256
370
   -1
100
AcDbMText
 10
253.0832429826445
 20
-106.3495994901867
 30
0
 40
10
 41
11.87777777777778
 71
    1
 72
    1
  1
上
  7
wqy-unicode
210
0
220
0
230
1
 50
355.086
 73
    2
 44
1
  0
MTEXT
  5
C5
100
AcDbEntity
  8
words
  6
ByLayer
 62
  256
370
   -1
100
AcDbMText
 10
227.6354050798653
 20
-98.87406612948665
 30
0
 40
10
 41
12.75555555555556
 71
    1
 72
    1
  1
就
  7
wqy-unicode
210
0
220
0
230
1
 50
340.086
 73
    2
 44
1
  0
CIRCLE
  5
C6
100
AcDbEntity
  8
cut
  6
ByLayer
 62
  256
370
   -1
100
AcDbCircle
 10
0
 20
0
 40
125
  0
CIRCLE
  5
C7
100
AcDbEntity
  8
cut
  6
ByLayer
 62
  256
370
   -1
100
AcDbCircle
 10
264.6342834999473
 20
-7.653789711389858e-15
 40
125
  0
CIRCLE
  5
C8
100
AcDbEntity
  8
cut
  6
ByLayer
 62
  256
370
   -1
100
AcDbCircle
 10
0
 20
0
 40
5
  0
CIRCLE
  5
C9
100
AcDbEntity
  8
cut
  6
ByLayer
 62
  256
370
   -1
100
AcDbCircle
 10
264.6342834999473
 20
0
 40
5
  0
LINE
  5
CA
100
AcDbEntity
  8
0
  6
ByLayer
 62
  256
370
   -1
100
AcDbLine
 10
148.8498293515669
 20
-362.3754266212513
 11
148.8498293515669
 21
-337.3754266212513
  0
LINE
  5
CB
100
AcDbEntity
  8
0
  6
ByLayer
 62
  256
370
   -1
100
AcDbLine
 10
148.8498293515669
 20
-337.3754266212513
 11
98.84982935156688
 21
-337.3754266212513
  0
LINE
  5
CC
100
AcDbEntity
  8
0
  6
ByLayer
 62
  256
370
   -1
100
AcDbLine
 10
148.8498293515669
 20
-387.3754266212513
 11
148.8498293515669
 21
-362.3754266212513
  0
LINE
  5
CD
100
AcDbEntity
  8
0
  6
ByLayer
 62
  256
370
   -1
100
AcDbLine
 10
148.8498293515669
 20
-295.681252797092
 11
153.8498293515669
 21
-295.681252797092
  0
LINE
  5
CE
100
AcDbEntity
  8
0
  6
ByLayer
 62
  256
370
   -1
100
AcDbLine
 10
153.8498293515669
 20
-295.681252797092
 11
153.8498293515669
 21
-315.681252797092
  0
LINE
  5
CF
100
AcDbEntity
  8
0
  6
ByLayer
 62
  256
370
   -1
100
AcDbLine
 10
153.8498293515669
 20
-315.681252797092
 11
148.8498293515669
 21
-315.681252797092
  0
LINE
  5
D0
100
AcDbEntity
  8
0
  6
ByLayer
 62
  256
370
   -1
100
AcDbLine
 10
148.8498293515669
 20
-429.0696004454105
 11
153.8498293515669
 21
-429.0696004454105
  0
LINE
  5
D1
100
AcDbEntity
  8
0
  6
ByLayer
 62
  256
370
   -1
100
AcDbLine
 10
153.8498293515669
 20
-429.0696004454105
 11
153.8498293515669
 21
-409.0696004454105
  0
LINE
  5
D2
100
AcDbEntity
  8
0
  6
ByLayer
 62
  256
370
   -1
100
AcDbLine
 10
153.8498293515669
 20
-409.0696004454105
 11
148.8498293515669
 21
-409.0696004454105
  0
LINE
  5
D3
100
AcDbEntity
  8
0
  6
ByLayer
 62
  256
370
   -1
100
AcDbLine
 10
190.5440031757262
 20
-387.3754266212516
 11
190.5440031757262
 21
-392.3754266212516
  0
LINE
  5
D4
100
AcDbEntity
  8
0
  6
ByLayer
 62
  256
370
   -1
100
AcDbLine
 10
190.5440031757262
 20
-392.3754266212516
 11
170.5440031757261
 21
-392.3754266212513
  0
LINE
  5
D5
100
AcDbEntity
  8
0
  6
ByLayer
 62
  256
370
   -1
100
AcDbLine
 10
170.5440031757261
 20
-392.3754266212513
 11
170.5440031757262
 21
-387.3754266212513
  0
LINE
  5
D6
100
AcDbEntity
  8
0
  6
ByLayer
 62
  256
370
   -1
100
AcDbLine
 10
190.5440031757261
 20
-337.3754266212513
 11
190.5440031757261
 21
-332.3754266212513
  0
LINE
  5
D7
100
AcDbEntity
  8
0
  6
ByLayer
 62
  256
370
   -1
100
AcDbLine
 10
190.5440031757261
 20
-332.3754266212513
 11
170.5440031757261
 21
-332.3754266212513
  0
LINE
  5
D8
100
AcDbEntity
  8
0
  6
ByLayer
 62
  256
370
   -1
100
AcDbLine
 10
170.5440031757261
 20
-332.3754266212513
 11
170.5440031757261
 21
-337.3754266212513
  0
LINE
  5
D9
100
AcDbEntity
  8
0
  6
ByLayer
 62
  256
370
   -1
100
AcDbLine
 10
98.84982935156691
 20
-295.681252797092
 11
93.84982935156691
 21
-295.681252797092
  0
LINE
  5
DA
100
AcDbEntity
  8
0
  6
ByLayer
 62
  256
370
   -1
100
AcDbLine
 10
93.84982935156691
 20
-295.681252797092
 11
93.84982935156691
 21
-315.681252797092
  0
LINE
  5
DB
100
AcDbEntity
  8
0
  6
ByLayer
 62
  256
370
   -1
100
AcDbLine
 10
93.84982935156691
 20
-315.681252797092
 11
98.84982935156691
 21
-315.681252797092
  0
LINE
  5
DC
100
AcDbEntity
  8
0
  6
ByLayer
 62
  256
370
   -1
100
AcDbLine
 10
57.15565552740765
 20
-337.3754266212512
 11
57.15565552740765
 21
-332.3754266212512
  0
LINE
  5
DD
100
AcDbEntity
  8
0
  6
ByLayer
 62
  256
370
   -1
100
AcDbLine
 10
57.15565552740765
 20
-332.3754266212512
 11
77.15565552740765
 21
-332.3754266212513
  0
LINE
  5
DE
100
AcDbEntity
  8
0
  6
ByLayer
 62
  256
370
   -1
100
AcDbLine
 10
77.15565552740765
 20
-332.3754266212513
 11
77.15565552740765
 21
-337.3754266212513
  0
ARC
  5
DF
100
AcDbEntity
  8
0
  6
ByLayer
 62
  256
370
   -1
100
AcDbCircle
 10
123.8498293515669
 20
-362.3754266212513
 40
93.34077351297219
100
AcDbArc
 50
285.5355243612595
 51
164.4644756387406
  0
LINE
  5
E0
100
AcDbEntity
  8
0
  6
ByLayer
 62
  256
370
   -1
100
AcDbLine
 10
98.84982935156691
 20
-295.681252797092
 11
98.84982935156691
 21
-315.681252797092
  0
LINE
  5
E1
100
AcDbEntity
  8
0
  6
ByLayer
 62
  256
370
   -1
100
AcDbLine
 10
148.8498293515669
 20
-295.681252797092
 11
148.8498293515669
 21
-315.681252797092
  0
LINE
  5
E2
100
AcDbEntity
  8
0
  6
ByLayer
 62
  256
370
   -1
100
AcDbLine
 10
170.5440031757261
 20
-337.3754266212513
 11
190.5440031757261
 21
-337.3754266212513
  0
LINE
  5
E3
100
AcDbEntity
  8
0
  6
ByLayer
 62
  256
370
   -1
100
AcDbLine
 10
190.5440031757262
 20
-387.3754266212516
 11
170.5440031757262
 21
-387.3754266212513
  0
LINE
  5
E4
100
AcDbEntity
  8
0
  6
ByLayer
 62
  256
370
   -1
100
AcDbLine
 10
148.8498293515669
 20
-387.3754266212513
 11
148.8498293515669
 21
-409.0696004454105
  0
LINE
  5
E5
100
AcDbEntity
  8
0
  6
ByLayer
 62
  256
370
   -1
100
AcDbLine
 10
148.8498293515669
 20
-429.0696004454105
 11
148.8498293515669
 21
-452.3059553642759
  0
LINE
  5
E6
100
AcDbEntity
  8
0
  6
ByLayer
 62
  256
370
   -1
100
AcDbLine
 10
33.91930060854229
 20
-337.3754266212513
 11
57.15565552740765
 21
-337.3754266212512
  0
LINE
  5
E7
100
AcDbEntity
  8
0
  6
ByLayer
 62
  256
370
   -1
100
AcDbLine
 10
77.15565552740765
 20
-337.3754266212513
 11
98.84982935156688
 21
-337.3754266212513
  0
LINE
  5
E8
100
AcDbEntity
  8
0
  6
ByLayer
 62
  256
370
   -1
100
AcDbLine
 10
43.23786158955122
 20
-350.1488797726201
 11
43.23786158955122
 21
-345.1488797726201
  0
LINE
  5
E9
100
AcDbEntity
  8
0
  6
ByLayer
 62
  256
370
   -1
100
AcDbLine
 10
43.23786158955122
 20
-345.1488797726201
 11
23.23786158955122
 21
-345.1488797726201
  0
LINE
  5
EA
100
AcDbEntity
  8
0
  6
ByLayer
 62
  256
370
   -1
100
AcDbLine
 10
23.23786158955122
 20
-345.1488797726201
 11
23.23786158955122
 21
-350.1488797726201
  0
LINE
  5
EB
100
AcDbEntity
  8
0
  6
ByLayer
 62
  256
370
   -1
100
AcDbLine
 10
1.543687765391979
 20
-350.14887977262
 11
23.23786158955122
 21
-350.1488797726201
  0
LINE
  5
EC
100
AcDbEntity
  8
0
  6
ByLayer
 62
  256
370
   -1
100
AcDbLine
 10
43.23786158955122
 20
-350.1488797726201
 11
64.93203541371045
 21
-350.14887977262
  0
LINE
  5
ED
100
AcDbEntity
  8
0
  6
ByLayer
 62
  256
370
   -1
100
AcDbLine
 10
43.23786158955122
 20
-405.14887977262
 11
43.23786158955122
 21
-410.14887977262
  0
LINE
  5
EE
100
AcDbEntity
  8
0
  6
ByLayer
 62
  256
370
   -1
100
AcDbLine
 10
43.23786158955122
 20
-410.14887977262
 11
23.23786158955122
 21
-410.14887977262
  0
LINE
  5
EF
100
AcDbEntity
  8
0
  6
ByLayer
 62
  256
370
   -1
100
AcDbLine
 10
23.23786158955122
 20
-410.14887977262
 11
23.23786158955122
 21
-405.14887977262
  0
LINE
  5
F0
100
AcDbEntity
  8
0
  6
ByLayer
 62
  256
370
   -1
100
AcDbLine
 10
1.543687765391979
 20
-405.14887977262
 11
23.23786158955122
 21
-405.14887977262
  0
LINE
  5
F1
100
AcDbEntity
  8
0
  6
ByLayer
 62
  256
370
   -1
100
AcDbLine
 10
43.23786158955122
 20
-405.14887977262
 11
64.93203541371045
 21
-405.14887977262
  0
LINE
  5
F2
100
AcDbEntity
  8
0
  6
ByLayer
 62
  256
370
   -1
100
AcDbLine
 10
64.93203541371045
 20
-350.14887977262
 11
64.93203541371045
 21
-405.14887977262
  0
LINE
  5
F3
100
AcDbEntity
  8
0
  6
ByLayer
 62
  256
370
   -1
100
AcDbLine
 10
1.543687765391979
 20
-350.14887977262
 11
1.543687765391979
 21
-367.64887977262
  0
LINE
  5
F4
100
AcDbEntity
  8
0
  6
ByLayer
 62
  256
370
   -1
100
AcDbLine
 10
1.543687765391979
 20
-367.64887977262
 11
-3.456312234608021
 21
-367.64887977262
  0
LINE
  5
F5
100
AcDbEntity
  8
0
  6
ByLayer
 62
  256
370
   -1
100
AcDbLine
 10
-3.456312234608021
 20
-367.64887977262
 11
-3.456312234608021
 21
-387.64887977262
  0
LINE
  5
F6
100
AcDbEntity
  8
0
  6
ByLayer
 62
  256
370
   -1
100
AcDbLine
 10
-3.456312234608021
 20
-387.64887977262
 11
1.543687765391979
 21
-387.64887977262
  0
LINE
  5
F7
100
AcDbEntity
  8
0
  6
ByLayer
 62
  256
370
   -1
100
AcDbLine
 10
1.543687765391979
 20
-387.64887977262
 11
1.543687765391979
 21
-405.14887977262
  0
LINE
  5
F8
100
AcDbEntity
  8
0
  6
ByLayer
 62
  256
370
   -1
100
AcDbLine
 10
121.8791816862381
 20
-348.2764673893657
 11
121.8791816862381
 21
-343.2764673893657
  0
LINE
  5
F9
100
AcDbEntity
  8
0
  6
ByLayer
 62
  256
370
   -1
100
AcDbLine
 10
121.8791816862381
 20
-343.2764673893657
 11
101.8791816862381
 21
-343.2764673893657
  0
LINE
  5
FA
100
AcDbEntity
  8
0
  6
ByLayer
 62
  256
370
   -1
100
AcDbLine
 10
101.8791816862381
 20
-343.2764673893657
 11
101.8791816862381
 21
-348.2764673893657
  0
LINE
  5
FB
100
AcDbEntity
  8
0
  6
ByLayer
 62
  256
370
   -1
100
AcDbLine
 10
80.18500786207889
 20
-348.2764673893656
 11
101.8791816862381
 21
-348.2764673893657
  0
LINE
  5
FC
100
AcDbEntity
  8
0
  6
ByLayer
 62
  256
370
   -1
100
AcDbLine
 10
121.8791816862381
 20
-348.2764673893657
 11
143.5733555103974
 21
-348.2764673893656
  0
LINE
  5
FD
100
AcDbEntity
  8
0
  6
ByLayer
 62
  256
370
   -1
100
AcDbLine
 10
121.8791816862381
 20
-403.2764673893656
 11
121.8791816862381
 21
-408.2764673893656
  0
LINE
  5
FE
100
AcDbEntity
  8
0
  6
ByLayer
 62
  256
370
   -1
100
AcDbLine
 10
121.8791816862381
 20
-408.2764673893656
 11
101.8791816862381
 21
-408.2764673893656
  0
LINE
  5
FF
100
AcDbEntity
  8
0
  6
ByLayer
 62
  256
370
   -1
100
AcDbLine
 10
101.8791816862381
 20
-408.2764673893656
 11
101.8791816862381
 21
-403.2764673893656
  0
LINE
  5
100
100
AcDbEntity
  8
0
  6
ByLayer
 62
  256
370
   -1
100
AcDbLine
 10
80.18500786207889
 20
-403.2764673893656
 11
101.8791816862381
 21
-403.2764673893656
  0
LINE
  5
101
100
AcDbEntity
  8
0
  6
ByLayer
 62
  256
370
   -1
100
AcDbLine
 10
121.8791816862381
 20
-403.2764673893656
 11
143.5733555103974
 21
-403.2764673893656
  0
LINE
  5
102
100
AcDbEntity
  8
0
  6
ByLayer
 62
  256
370
   -1
100
AcDbLine
 10
143.5733555103974
 20
-348.2764673893656
 11
143.5733555103974
 21
-403.2764673893656
  0
LINE
  5
103
100
AcDbEntity
  8
0
  6
ByLayer
 62
  256
370
   -1
100
AcDbLine
 10
80.18500786207889
 20
-348.2764673893656
 11
80.18500786207889
 21
-365.7764673893656
  0
LINE
  5
104
100
AcDbEntity
  8
0
  6
ByLayer
 62
  256
370
   -1
100
AcDbLine
 10
80.18500786207889
 20
-365.7764673893656
 11
75.18500786207889
 21
-365.7764673893656
  0
LINE
  5
105
100
AcDbEntity
  8
0
  6
ByLayer
 62
  256
370
   -1
100
AcDbLine
 10
75.18500786207889
 20
-365.7764673893656
 11
75.18500786207889
 21
-385.7764673893656
  0
LINE
  5
106
100
AcDbEntity
  8
0
  6
ByLayer
 62
  256
370
   -1
100
AcDbLine
 10
75.18500786207889
 20
-385.7764673893656
 11
80.18500786207889
 21
-385.7764673893656
  0
LINE
  5
107
100
AcDbEntity
  8
0
  6
ByLayer
 62
  256
370
   -1
100
AcDbLine
 10
80.18500786207889
 20
-385.7764673893656
 11
80.18500786207889
 21
-403.2764673893656
  0
LINE
  5
108
100
AcDbEntity
  8
0
  6
ByLayer
 62
  256
370
   -1
100
AcDbLine
 10
121.8413384074217
 20
-417.6489750600571
 11
121.8413384074217
 21
-412.6489750600571
  0
LINE
  5
109
100
AcDbEntity
  8
0
  6
ByLayer
 62
  256
370
   -1
100
AcDbLine
 10
121.8413384074217
 20
-412.6489750600571
 11
101.8413384074217
 21
-412.6489750600571
  0
LINE
  5
10A
100
AcDbEntity
  8
0
  6
ByLayer
 62
  256
370
   -1
100
AcDbLine
 10
101.8413384074217
 20
-412.6489750600571
 11
101.8413384074217
 21
-417.6489750600571
  0
LINE
  5
10B
100
AcDbEntity
  8
0
  6
ByLayer
 62
  256
370
   -1
100
AcDbLine
 10
80.14716458326242
 20
-417.648975060057
 11
101.8413384074217
 21
-417.6489750600571
  0
LINE
  5
10C
100
AcDbEntity
  8
0
  6
ByLayer
 62
  256
370
   -1
100
AcDbLine
 10
121.8413384074217
 20
-417.6489750600571
 11
143.5355122315809
 21
-417.648975060057
  0
LINE
  5
10D
100
AcDbEntity
  8
0
  6
ByLayer
 62
  256
370
   -1
100
AcDbLine
 10
121.8413384074217
 20
-472.648975060057
 11
121.8413384074217
 21
-477.648975060057
  0
LINE
  5
10E
100
AcDbEntity
  8
0
  6
ByLayer
 62
  256
370
   -1
100
AcDbLine
 10
121.8413384074217
 20
-477.648975060057
 11
101.8413384074217
 21
-477.648975060057
  0
LINE
  5
10F
100
AcDbEntity
  8
0
  6
ByLayer
 62
  256
370
   -1
100
AcDbLine
 10
101.8413384074217
 20
-477.648975060057
 11
101.8413384074217
 21
-472.648975060057
  0
LINE
  5
110
100
AcDbEntity
  8
0
  6
ByLayer
 62
  256
370
   -1
100
AcDbLine
 10
80.14716458326242
 20
-472.648975060057
 11
101.8413384074217
 21
-472.648975060057
  0
LINE
  5
111
100
AcDbEntity
  8
0
  6
ByLayer
 62
  256
370
   -1
100
AcDbLine
 10
121.8413384074217
 20
-472.648975060057
 11
143.5355122315809
 21
-472.648975060057
  0
LINE
  5
112
100
AcDbEntity
  8
0
  6
ByLayer
 62
  256
370
   -1
100
AcDbLine
 10
143.5355122315809
 20
-417.648975060057
 11
143.5355122315809
 21
-472.648975060057
  0
LINE
  5
113
100
AcDbEntity
  8
0
  6
ByLayer
 62
  256
370
   -1
100
AcDbLine
 10
80.14716458326242
 20
-417.648975060057
 11
80.14716458326242
 21
-435.148975060057
  0
LINE
  5
114
100
AcDbEntity
  8
0
  6
ByLayer
 62
  256
370
   -1
100
AcDbLine
 10
80.14716458326242
 20
-435.148975060057
 11
75.14716458326242
 21
-435.148975060057
  0
LINE
  5
115
100
AcDbEntity
  8
0
  6
ByLayer
 62
  256
370
   -1
100
AcDbLine
 10
75.14716458326242
 20
-435.148975060057
 11
75.14716458326242
 21
-455.148975060057
  0
LINE
  5
116
100
AcDbEntity
  8
0
  6
ByLayer
 62
  256
370
   -1
100
AcDbLine
 10
75.14716458326242
 20
-455.148975060057
 11
80.14716458326242
 21
-455.148975060057
  0
LINE
  5
117
100
AcDbEntity
  8
0
  6
ByLayer
 62
  256
370
   -1
100
AcDbLine
 10
80.14716458326242
 20
-455.148975060057
 11
80.14716458326242
 21
-472.648975060057
  0
LINE
  5
118
100
AcDbEntity
  8
0
  6
ByLayer
 62
  256
370
   -1
100
AcDbLine
 10
63.39211409770049
 20
-435.861841490407
 11
68.3921140977005
 21
-435.861841490407
  0
LINE
  5
119
100
AcDbEntity
  8
0
  6
ByLayer
 62
  256
370
   -1
100
AcDbLine
 10
68.3921140977005
 20
-435.861841490407
 11
68.3921140977005
 21
-455.861841490407
  0
LINE
  5
11A
100
AcDbEntity
  8
0
  6
ByLayer
 62
  256
370
   -1
100
AcDbLine
 10
68.3921140977005
 20
-455.861841490407
 11
63.39211409770049
 21
-455.861841490407
  0
LINE
  5
11B
100
AcDbEntity
  8
0
  6
ByLayer
 62
  256
370
   -1
100
AcDbLine
 10
63.39211409770049
 20
-414.1676676662478
 11
8.3921140977005
 21
-414.1676676662478
  0
LINE
  5
11C
100
AcDbEntity
  8
0
  6
ByLayer
 62
  256
370
   -1
100
AcDbLine
 10
63.39211409770049
 20
-435.861841490407
 11
63.39211409770049
 21
-414.1676676662478
  0
LINE
  5
11D
100
AcDbEntity
  8
0
  6
ByLayer
 62
  256
370
   -1
100
AcDbLine
 10
8.3921140977005
 20
-435.861841490407
 11
3.3921140977005
 21
-435.861841490407
  0
LINE
  5
11E
100
AcDbEntity
  8
0
  6
ByLayer
 62
  256
370
   -1
100
AcDbLine
 10
3.3921140977005
 20
-435.861841490407
 11
3.3921140977005
 21
-455.861841490407
  0
LINE
  5
11F
100
AcDbEntity
  8
0
  6
ByLayer
 62
  256
370
   -1
100
AcDbLine
 10
3.3921140977005
 20
-455.861841490407
 11
8.3921140977005
 21
-455.861841490407
  0
LINE
  5
120
100
AcDbEntity
  8
0
  6
ByLayer
 62
  256
370
   -1
100
AcDbLine
 10
8.3921140977005
 20
-435.861841490407
 11
8.3921140977005
 21
-414.1676676662478
  0
LINE
  5
121
100
AcDbEntity
  8
0
  6
ByLayer
 62
  256
370
   -1
100
AcDbLine
 10
45.89211409770052
 20
-477.5560153145661
 11
45.89211409770052
 21
-472.5560153145661
  0
LINE
  5
122
100
AcDbEntity
  8
0
  6
ByLayer
 62
  256
370
   -1
100
AcDbLine
 10
45.89211409770052
 20
-472.5560153145661
 11
25.89211409770053
 21
-472.5560153145661
  0
LINE
  5
123
100
AcDbEntity
  8
0
  6
ByLayer
 62
  256
370
   -1
100
AcDbLine
 10
25.89211409770053
 20
-472.5560153145661
 11
25.89211409770053
 21
-477.5560153145661
  0
LINE
  5
124
100
AcDbEntity
  8
0
  6
ByLayer
 62
  256
370
   -1
100
AcDbLine
 10
25.89211409770053
 20
-477.5560153145661
 11
8.392114097700514
 21
-477.5560153145661
  0
LINE
  5
125
100
AcDbEntity
  8
0
  6
ByLayer
 62
  256
370
   -1
100
AcDbLine
 10
45.89211409770052
 20
-477.5560153145661
 11
63.39211409770049
 21
-477.5560153145661
  0
LINE
  5
126
100
AcDbEntity
  8
0
  6
ByLayer
 62
  256
370
   -1
100
AcDbLine
 10
63.39211409770049
 20
-455.861841490407
 11
63.39211409770049
 21
-477.5560153145661
  0
LINE
  5
127
100
AcDbEntity
  8
0
  6
ByLayer
 62
  256
370
   -1
100
AcDbLine
 10
8.392114097700514
 20
-477.5560153145661
 11
8.3921140977005
 21
-455.861841490407
  0
LINE
  5
128
100
AcDbEntity
  8
0
  6
ByLayer
 62
  256
370
   -1
100
AcDbLine
 10
-7.724658757564036
 20
-300.8464782260529
 11
-2.724658757564036
 21
-300.8464782260529
  0
LINE
  5
129
100
AcDbEntity
  8
0
  6
ByLayer
 62
  256
370
   -1
100
AcDbLine
 10
-2.724658757564036
 20
-300.8464782260529
 11
-2.724658757564036
 21
-320.8464782260529
  0
LINE
  5
12A
100
AcDbEntity
  8
0
  6
ByLayer
 62
  256
370
   -1
100
AcDbLine
 10
-2.724658757564036
 20
-320.8464782260529
 11
-7.724658757564036
 21
-320.8464782260529
  0
LINE
  5
12B
100
AcDbEntity
  8
0
  6
ByLayer
 62
  256
370
   -1
100
AcDbLine
 10
-7.724658757564036
 20
-434.2348258743714
 11
-2.724658757564036
 21
-434.2348258743714
  0
LINE
  5
12C
100
AcDbEntity
  8
0
  6
ByLayer
 62
  256
370
   -1
100
AcDbLine
 10
-2.724658757564036
 20
-434.2348258743714
 11
-2.724658757564036
 21
-414.2348258743714
  0
LINE
  5
12D
100
AcDbEntity
  8
0
  6
ByLayer
 62
  256
370
   -1
100
AcDbLine
 10
-2.724658757564036
 20
-414.2348258743714
 11
-7.724658757564036
 21
-414.2348258743714
  0
LINE
  5
12E
100
AcDbEntity
  8
0
  6
ByLayer
 62
  256
370
   -1
100
AcDbLine
 10
-7.724658757564036
 20
-279.1523044018937
 11
-62.72465875756404
 21
-279.1523044018937
  0
LINE
  5
12F
100
AcDbEntity
  8
0
  6
ByLayer
 62
  256
370
   -1
100
AcDbLine
 10
-7.724658757563994
 20
-434.2348258743714
 11
-7.724658757563979
 21
-455.9289996985306
  0
LINE
  5
130
100
AcDbEntity
  8
0
  6
ByLayer
 62
  256
370
   -1
100
AcDbLine
 10
-7.724658757564036
 20
-300.8464782260529
 11
-7.724658757564036
 21
-279.1523044018937
  0
LINE
  5
131
100
AcDbEntity
  8
0
  6
ByLayer
 62
  256
370
   -1
100
AcDbLine
 10
-62.72465875756404
 20
-300.8464782260529
 11
-67.72465875756404
 21
-300.8464782260529
  0
LINE
  5
132
100
AcDbEntity
  8
0
  6
ByLayer
 62
  256
370
   -1
100
AcDbLine
 10
-67.72465875756404
 20
-300.8464782260529
 11
-67.72465875756404
 21
-320.8464782260529
  0
LINE
  5
133
100
AcDbEntity
  8
0
  6
ByLayer
 62
  256
370
   -1
100
AcDbLine
 10
-67.72465875756404
 20
-320.8464782260529
 11
-62.72465875756404
 21
-320.8464782260529
  0
LINE
  5
134
100
AcDbEntity
  8
0
  6
ByLayer
 62
  256
370
   -1
100
AcDbLine
 10
-62.72465875756404
 20
-434.2348258743714
 11
-67.72465875756404
 21
-434.2348258743714
  0
LINE
  5
135
100
AcDbEntity
  8
0
  6
ByLayer
 62
  256
370
   -1
100
AcDbLine
 10
-67.72465875756404
 20
-434.2348258743714
 11
-67.72465875756404
 21
-414.2348258743714
  0
LINE
  5
136
100
AcDbEntity
  8
0
  6
ByLayer
 62
  256
370
   -1
100
AcDbLine
 10
-67.72465875756404
 20
-414.2348258743714
 11
-62.72465875756404
 21
-414.2348258743714
  0
LINE
  5
137
100
AcDbEntity
  8
0
  6
ByLayer
 62
  256
370
   -1
100
AcDbLine
 10
-62.72465875756408
 20
-434.2348258743714
 11
-62.72465875756409
 21
-455.9289996985306
  0
LINE
  5
138
100
AcDbEntity
  8
0
  6
ByLayer
 62
  256
370
   -1
100
AcDbLine
 10
-62.72465875756404
 20
-300.8464782260529
 11
-62.72465875756404
 21
-279.1523044018937
  0
LINE
  5
139
100
AcDbEntity
  8
0
  6
ByLayer
 62
  256
370
   -1
100
AcDbLine
 10
-62.72465875756409
 20
-455.9289996985306
 11
-7.724658757563979
 21
-455.9289996985306
  0
LINE
  5
13A
100
AcDbEntity
  8
0
  6
ByLayer
 62
  256
370
   -1
100
AcDbLine
 10
-25.22465875756401
 20
-342.5406520502121
 11
-25.22465875756401
 21
-337.5406520502121
  0
LINE
  5
13B
100
AcDbEntity
  8
0
  6
ByLayer
 62
  256
370
   -1
100
AcDbLine
 10
-25.22465875756401
 20
-337.5406520502121
 11
-45.22465875756401
 21
-337.5406520502121
  0
LINE
  5
13C
100
AcDbEntity
  8
0
  6
ByLayer
 62
  256
370
   -1
100
AcDbLine
 10
-45.22465875756401
 20
-337.5406520502121
 11
-45.22465875756401
 21
-342.5406520502121
  0
LINE
  5
13D
100
AcDbEntity
  8
0
  6
ByLayer
 62
  256
370
   -1
100
AcDbLine
 10
-45.22465875756401
 20
-342.5406520502121
 11
-25.22465875756401
 21
-342.5406520502121
  0
LINE
  5
13E
100
AcDbEntity
  8
0
  6
ByLayer
 62
  256
370
   -1
100
AcDbLine
 10
-7.724658757564036
 20
-320.8464782260529
 11
-7.724658757564036
 21
-414.2348258743714
  0
LINE
  5
13F
100
AcDbEntity
  8
0
  6
ByLayer
 62
  256
370
   -1
100
AcDbLine
 10
-62.72465875756404
 20
-414.2348258743714
 11
-62.72465875756404
 21
-320.8464782260529
  0
LINE
  5
140
100
AcDbEntity
  8
0
  6
ByLayer
 62
  256
370
   -1
100
AcDbLine
 10
-25.22465875756401
 20
-392.5406520502121
 11
-25.22465875756401
 21
-397.5406520502121
  0
LINE
  5
141
100
AcDbEntity
  8
0
  6
ByLayer
 62
  256
370
   -1
100
AcDbLine
 10
-25.22465875756401
 20
-397.5406520502121
 11
-45.22465875756401
 21
-397.5406520502121
  0
LINE
  5
142
100
AcDbEntity
  8
0
  6
ByLayer
 62
  256
370
   -1
100
AcDbLine
 10
-45.22465875756401
 20
-397.5406520502121
 11
-45.22465875756401
 21
-392.5406520502121
  0
LINE
  5
143
100
AcDbEntity
  8
0
  6
ByLayer
 62
  256
370
   -1
100
AcDbLine
 10
-45.22465875756401
 20
-392.5406520502121
 11
-25.22465875756401
 21
-392.5406520502121
  0
ENDSEC
  0
SECTION
  2
OBJECTS
  0
DICTIONARY
  5
C
330
0
100
AcDbDictionary
281
    1
  3
ACAD_GROUP
350
D
  0
DICTIONARY
  5
D
330
C
100
AcDbDictionary
281
    1
  0
PLOTSETTINGS
  5
144
100
AcDbPlotSettings
  6
1x1
 40
0
 41
0
 42
0
 43
0
  0
ENDSEC
  0
EOF
